PathFileType	4	(X/Y/Z)	C:\Users\Basilio\Documents\Thesis Gigler\squatting_fais\c3dfiles\047\SJ_pre3\markers_experimental.trc
DataRate	CameraRate	NumFrames	NumMarkers	Units	OrigDataRate	OrigDataStartFrame	OrigNumFrames
200.000000	200.000000	4	60	mm	200.000000	642	1714
Frame#	Time	FHD			LBHD			RBHD			C7			T10			CLAV			LSHO			LUUPA			LMUPA			LDUPA			LLEP			LMEP			LRAD			LUL			LRFIN			RSHO			RUPA1			RMUPA			RDUPA			RLEP			RMEP			RRAD			RUL			RUFIN			LASI			RASI			USACR			LSACR			RSACR			LTHI1			LTHI2			LTHI3			LTHI4			LLFC			LMFC			LTIB1			LTIB2			LTIB3			LTIB4			LLMAL			LMMAL			LMT1			LMT2			LMT5			RTHI			RTHI2			RTHI3			RTHI4			RLFC			RMFC			RTIB1			RTIB2			RTIB3			RTIB4			RLMAL			RMMAL			RHEE			RMT1			RMT2			RMT5			
		X1	Y1	Z1	X2	Y2	Z2	X3	Y3	Z3	X4	Y4	Z4	X5	Y5	Z5	X6	Y6	Z6	X7	Y7	Z7	X8	Y8	Z8	X9	Y9	Z9	X10	Y10	Z10	X11	Y11	Z11	X12	Y12	Z12	X13	Y13	Z13	X14	Y14	Z14	X15	Y15	Z15	X16	Y16	Z16	X17	Y17	Z17	X18	Y18	Z18	X19	Y19	Z19	X20	Y20	Z20	X21	Y21	Z21	X22	Y22	Z22	X23	Y23	Z23	X24	Y24	Z24	X25	Y25	Z25	X26	Y26	Z26	X27	Y27	Z27	X28	Y28	Z28	X29	Y29	Z29	X30	Y30	Z30	X31	Y31	Z31	X32	Y32	Z32	X33	Y33	Z33	X34	Y34	Z34	X35	Y35	Z35	X36	Y36	Z36	X37	Y37	Z37	X38	Y38	Z38	X39	Y39	Z39	X40	Y40	Z40	X41	Y41	Z41	X42	Y42	Z42	X43	Y43	Z43	X44	Y44	Z44	X45	Y45	Z45	X46	Y46	Z46	X47	Y47	Z47	X48	Y48	Z48	X49	Y49	Z49	X50	Y50	Z50	X51	Y51	Z51	X52	Y52	Z52	X53	Y53	Z53	X54	Y54	Z54	X55	Y55	Z55	X56	Y56	Z56	X57	Y57	Z57	X58	Y58	Z58	X59	Y59	Z59	X60	Y60	Z60	

643	3.21	215.7486419677735	1045.575439453125	-890.7005004882815	66.3614959716797	1111.880981445313	-972.3817138671877	48.37794113159181	1126.5390625	-825.3032226562502	-77.17575073242189	1025.483032226563	-900.1468505859377	-340.1652832031251	851.0346679687502	-894.301940917969	-9.308876991271974	870.8494262695315	-895.4902954101565	-38.28673934936524	942.3276367187502	-1065.748901367188	-183.9957885742188	972.083679199219	-1183.965209960938	-182.8975830078125	927.6845703125002	-1210.08203125	-233.4629821777344	953.8131103515627	-1231.617309570313	-281.0169982910157	910.4694824218752	-1273.458374023438	-339.8385009765626	933.3130493164065	-1197.429321289063	-342.3110961914063	732.5710449218751	-1097.381958007813	-333.6379699707032	681.7518310546876	-1155.196166992188	-299.0949707031251	693.9576416015626	-1059.620971679688	-36.7851905822754	960.6663818359377	-737.8769531250001	-194.1628417968751	992.5772094726565	-613.7990112304689	-197.2661285400391	949.7053222656252	-589.3585815429689	-247.0014343261719	976.805847167969	-569.4649047851564	-297.3489074707032	932.103210449219	-531.6770629882814	-357.6710815429688	950.1672363281252	-601.1655883789064	-311.0823364257813	739.0880737304689	-694.2538452148439	-312.7773437500001	694.7546997070314	-631.4045410156251	-285.9324951171876	683.0891113281251	-733.0040893554689	-377.4173583984376	587.6105346679689	-1001.6767578125	-377.0098571777344	591.9785766601564	-769.3065185546877	-469.9855346679689	763.7979736328126	-896.3106689453127	-496.6447753906251	746.9152221679689	-925.0649414062502	-498.378875732422	745.8178100585939	-866.9404907226565	-452.913543701172	583.2241210937501	-1114.908813476563	-373.2143859863282	579.8411254882814	-1138.18896484375	-347.4835510253907	613.1069946289064	-1113.662109375	-344.9006042480469	533.7341918945314	-1164.879028320313	-212.8049774169922	437.6118774414064	-1202.096923828125	-150.1703033447266	429.2219238281251	-1087.735107421875	-207.5508575439454	270.0767517089844	-1107.739624023438	-251.5706634521485	231.293197631836	-1172.713134765625	-228.1165771484376	224.3601226806641	-1133.646850585938	-272.0366821289063	164.0235595703125	-1094.434448242188	-363.7624206542969	92.56627655029298	-1128.080200195313	-326.5355834960938	105.852409362793	-1045.304565429688	-211.4014129638672	64.18352508544923	-1094.90185546875	-221.9647674560547	61.10353088378908	-1137.350463867188	-270.9557800292969	42.85729980468751	-1175.46337890625	-430.2816467285157	553.2956542968751	-652.5904541015626	-367.0986633300782	556.2680664062501	-632.8341674804689	-347.5888977050782	581.9956665039064	-639.9901123046876	-317.6431884765626	492.165740966797	-611.1660766601564	-192.7617492675782	422.7307434082032	-597.8090820312501	-137.7422485351563	429.8521728515626	-719.3614501953126	-173.7683868408203	300.4536743164063	-630.0482177734376	-273.9848022460938	252.8506317138672	-616.3499755859376	-232.4117126464844	236.1544647216797	-628.9431152343751	-240.3108673095704	196.3046875000001	-672.1513671875001	-364.9448547363282	89.33129119873048	-680.5147094726564	-319.4905395507813	105.517807006836	-762.2835083007814	-417.9542236328126	53.91946029663087	-747.6062011718751	-206.8527221679688	54.69236373901369	-715.8550415039064	-216.6738433837891	57.08866119384767	-671.4837036132814	-273.9573364257813	29.93782615661622	-624.6468505859376	
644	3.215	216.0174102783204	1045.625	-890.6607055664065	66.87596130371095	1112.095825195313	-972.4909667968752	48.85322189331056	1126.766723632813	-825.6289672851565	-76.79452514648439	1025.719848632813	-900.2410278320315	-340.0767211914063	851.3337402343752	-894.3311767578127	-8.959128379821779	871.0344238281252	-895.6031494140627	-38.15624618530274	942.433776855469	-1065.792602539063	-183.6379089355469	972.2553710937502	-1184.115112304688	-182.657958984375	928.2198486328127	-1210.236206054688	-233.1182098388672	954.0723876953127	-1231.7919921875	-280.5760498046876	910.7884521484377	-1273.646728515625	-339.5017700195313	933.781677246094	-1197.534545898438	-342.1203308105469	732.9778442382814	-1097.5751953125	-333.6051025390626	682.1553955078126	-1155.375122070313	-298.7593994140626	694.0852661132814	-1059.5810546875	-36.48446273803712	960.8101806640627	-737.7578125000001	-193.5679931640626	992.8030395507815	-613.9510498046876	-196.6490631103516	949.837097167969	-589.4664306640626	-246.5735778808594	976.9456787109377	-569.5279541015626	-296.6481933593751	932.2568359375002	-531.9119873046876	-357.1865844726563	950.2774658203127	-601.2197265625001	-310.8548278808594	739.2131347656251	-694.3835449218751	-312.6091003417969	694.9647216796876	-631.4629516601564	-285.8160095214844	683.2783203125001	-732.9004516601564	-378.5054931640626	587.5944213867189	-1002.580810546875	-376.7897644042969	591.6364135742189	-770.2330322265627	-469.4346008300782	764.1737060546876	-896.3660888671877	-496.4382324218751	747.4223022460939	-925.121520996094	-497.7722778320314	746.3159790039064	-867.0488281250002	-452.8505859375001	583.5095825195314	-1114.913818359375	-373.1069030761719	580.0715942382814	-1138.324462890625	-347.3134765625001	613.2750854492189	-1113.7802734375	-344.8829040527344	533.9962768554689	-1165.062133789063	-212.8709106445313	437.6650390625001	-1202.136108398438	-150.2226715087891	429.1903686523439	-1087.774780273438	-207.6027832031251	270.1150512695313	-1107.730224609375	-251.5233917236329	231.2881774902344	-1172.849365234375	-228.0807495117188	224.270736694336	-1133.750854492188	-272.0128479003907	164.1557769775391	-1094.460571289063	-363.7356262207032	92.49995422363283	-1128.096069335938	-326.5449218750001	105.8822479248047	-1045.32470703125	-211.3352050781251	64.24321746826173	-1094.983276367188	-222.2245483398438	61.20096588134767	-1137.392822265625	-270.9900817871094	42.87678909301759	-1175.48486328125	-430.3184509277345	553.6741943359376	-652.5442504882814	-367.2359619140626	556.4943847656251	-632.5447998046876	-347.6100463867188	582.3085937500001	-639.9823608398439	-317.7131042480469	492.6502990722657	-611.0691528320314	-192.9242553710938	422.8861083984376	-597.7318115234376	-137.7943115234375	429.9284057617189	-719.3062133789064	-173.8010559082032	300.4731750488282	-629.9950561523439	-274.0348510742188	252.8966522216797	-616.4201660156251	-232.5062408447266	236.2698669433594	-628.8832397460939	-240.3444976806641	196.3892211914063	-672.1204833984376	-365.0220336914063	89.23538208007814	-680.4980468750001	-319.5252990722657	105.5507278442383	-762.2805175781251	-417.9578857421876	53.939998626709	-747.5996704101564	-206.9515533447266	54.6072463989258	-715.8032226562501	-216.7039947509766	57.03724670410158	-671.3987426757814	-273.9725036621094	30.02239418029786	-624.6271972656251	
645	3.22	216.414535522461	1045.76806640625	-890.7202758789065	67.29236602783205	1112.290893554688	-972.5571289062502	49.09439849853517	1126.991455078125	-825.6495361328127	-76.32799530029298	1025.959716796875	-900.3503417968752	-339.6634826660157	851.3050537109377	-894.1008300781252	-8.599513053894045	871.140808105469	-895.6452636718752	-37.9498519897461	942.6391601562502	-1065.890747070313	-183.4039154052735	972.4515380859377	-1184.250366210938	-182.3690032958985	928.6528320312502	-1210.38720703125	-232.8397827148438	954.3311157226565	-1231.92333984375	-280.3023681640626	911.044860839844	-1273.772583007813	-339.2613830566407	934.061218261719	-1197.639892578125	-341.9215087890626	733.2881469726564	-1097.802856445313	-333.4688110351563	682.5598144531251	-1155.567016601563	-298.6051635742188	694.3054809570314	-1059.874389648438	-36.10630416870118	960.9727172851565	-737.8764648437501	-193.2210540771485	992.9773559570315	-613.9525146484376	-196.4319152832032	949.797790527344	-589.0693359375001	-246.2308959960938	977.169372558594	-569.5457763671876	-296.3545532226563	932.381042480469	-531.6923828125001	-356.6665039062501	950.5469360351565	-601.2414550781251	-310.6715698242188	739.3409423828126	-694.4296875000001	-312.5182800292969	695.0935058593751	-631.4880371093751	-285.6750793457032	683.3969726562501	-732.8237915039064	-379.0809020996094	587.3521728515626	-1002.52001953125	-377.8949584960938	591.1866455078126	-770.1892700195315	-469.0454406738282	764.4508056640626	-896.4177856445315	-496.0812377929689	747.9102172851564	-925.225036621094	-497.6083068847657	746.7436523437501	-867.088073730469	-452.7276306152345	583.9202270507814	-1115.004028320313	-373.0424194335938	580.3112182617189	-1138.444946289063	-347.2162170410157	613.5041503906251	-1113.839477539063	-344.8576965332032	534.2465209960939	-1165.166259765625	-212.9465942382813	437.7261962890626	-1202.292846679688	-150.246826171875	429.2612609863282	-1087.851928710938	-207.7338562011719	270.1713867187501	-1107.7490234375	-251.5870666503907	231.3260955810547	-1172.931762695313	-228.0656890869141	224.2837829589844	-1133.899780273438	-272.0676879882813	164.1226501464844	-1094.624877929688	-363.7407531738282	92.48146057128908	-1128.12158203125	-326.5545959472657	105.9084701538086	-1045.329345703125	-211.2735137939454	64.32069396972658	-1095.080932617188	-221.9983673095704	60.89667129516603	-1137.320556640625	-271.0213317871094	42.87843322753907	-1175.480834960938	-430.2666320800782	554.2098999023439	-652.6795654296876	-367.1758728027344	556.9776611328126	-632.5084838867189	-347.5260314941407	582.5912475585939	-640.0224609375001	-317.6912841796876	492.9388427734376	-611.3549804687501	-192.9444427490235	423.1008911132814	-597.9574584960939	-138.0483551025391	429.9018554687501	-719.2812500000001	-173.885986328125	300.5673522949219	-629.9614868164064	-274.0706481933594	252.9739532470704	-616.4222412109376	-232.5723266601563	236.4330444335938	-628.9040527343751	-240.3527832031251	196.4319458007813	-672.0877685546876	-365.0162658691407	89.38073730468751	-680.6463623046876	-319.5267639160157	105.5839614868164	-762.2973632812501	-417.9512023925782	53.93621826171876	-747.5671997070314	-206.8625946044922	54.70679473876955	-715.9205932617189	-216.6713562011719	56.99814224243165	-671.3525390625001	-274.0195312500001	29.97717285156251	-624.6021118164064	
646	3.225	216.8566894531251	1045.857299804688	-890.7788085937502	67.74964904785158	1112.456909179688	-972.6516113281252	49.4496536254883	1127.264892578125	-825.6770629882815	-75.90276336669923	1026.253173828125	-900.4724121093752	-339.2284545898438	851.5884399414065	-894.120544433594	-8.114306449890138	871.3559570312502	-895.8094482421877	-37.62824630737305	942.7551269531252	-1066.000732421875	-183.0319061279297	972.7481689453127	-1184.31494140625	-182.0757751464844	928.9153442382815	-1210.525634765625	-232.5593872070313	954.4052734375002	-1231.99609375	-279.9692077636719	911.3339843750002	-1273.884765625	-338.9745178222657	934.362487792969	-1197.768432617188	-341.7270202636719	733.5733642578126	-1097.941650390625	-333.3742980957032	682.8717041015626	-1155.748657226563	-298.2906188964844	694.6469116210939	-1060.1884765625	-35.6701889038086	961.1037597656252	-737.9954223632814	-192.6792297363282	993.0587158203127	-614.1193237304689	-196.0059814453126	950.102966308594	-590.6292724609376	-245.7465972900391	977.2701416015627	-569.6610717773439	-295.9878540039063	932.576843261719	-531.4977416992189	-356.2498779296876	950.8128662109377	-601.2058105468751	-310.4346923828126	739.4582519531251	-694.4331665039064	-312.4159851074219	695.1965942382814	-631.4543457031251	-285.6168823242188	683.5336303710939	-732.8210449218751	-379.1965026855469	587.8553466796876	-1003.331237792969	-377.4437255859376	591.0375976562501	-771.0175781250002	-468.671356201172	764.7490844726564	-896.5032958984377	-495.6841735839845	748.4069213867189	-925.298278808594	-497.0581970214845	747.0985717773439	-867.205993652344	-452.5732421875001	584.1879882812501	-1115.07275390625	-373.2980041503907	580.3818969726564	-1138.35302734375	-347.0418395996094	613.6173706054689	-1113.956298828125	-344.8706359863282	534.4790649414064	-1165.274658203125	-213.0303955078126	437.7906799316407	-1202.398071289063	-150.3134460449219	429.2973022460939	-1088.054565429688	-207.8414764404297	270.2460632324219	-1107.727294921875	-251.5665283203126	231.2634277343751	-1173.111328125	-228.1199798583985	224.3171539306641	-1133.908203125	-272.0604553222657	164.1585083007813	-1094.719604492188	-363.7374877929688	92.47232055664064	-1128.158325195313	-326.5823669433594	105.9091949462891	-1045.415649414063	-211.4268798828126	64.17201232910158	-1094.976440429688	-222.0642852783204	61.06443023681642	-1137.396606445313	-271.0762329101563	42.80353164672852	-1175.4814453125	-430.1983947753907	554.4441528320314	-652.9309082031251	-367.0052490234376	557.2429199218751	-632.6574096679689	-347.5907592773438	583.0438232421876	-639.8973388671876	-317.6146240234376	493.2180786132814	-611.0512084960939	-193.0079803466797	423.2750854492189	-598.0057373046876	-137.9468841552735	429.9656677246095	-719.3058471679689	-174.019515991211	300.5561828613282	-629.8055419921876	-274.1534729003907	253.0019989013672	-616.4972534179689	-232.7191772460938	236.4785461425782	-628.6883544921876	-240.3609161376954	196.4636230468751	-672.0759277343751	-365.0425415039063	89.42081451416017	-680.7134399414064	-319.5161437988282	105.6554794311524	-762.3602294921876	-417.9580993652345	53.93465042114259	-747.5706787109376	-206.9718933105469	54.63257217407228	-715.8765258789064	-216.9645690917969	57.18650817871095	-671.3421630859376	-273.9778442382813	29.99991607666016	-624.6493530273439	
